<svg width="745" height="906" viewBox="0 0 745 906" fill="none" xmlns="http://www.w3.org/2000/svg">
<path d="M350.627 96.9232C398.377 185.425 365.342 295.878 276.84 343.627C188.339 391.377 77.8857 358.342 30.1359 269.84C-17.6138 181.339 15.4219 70.8857 103.923 23.136C192.424 -24.6138 302.878 8.42193 350.627 96.9232Z" stroke="url(#paint0_linear_6173_57)"/>
<path d="M699.398 356.793C796.871 537.453 729.435 762.925 548.774 860.398C368.113 957.871 142.641 890.435 45.1681 709.774C-52.305 529.113 15.1319 303.641 195.793 206.168C376.453 108.695 601.925 176.132 699.398 356.793Z" stroke="url(#paint1_linear_6173_57)"/>
<defs>
<linearGradient id="paint0_linear_6173_57" x1="33.2967" y1="276.751" x2="353.56" y2="101.306" gradientUnits="userSpaceOnUse">
<stop stop-color="#D4B098"/>
<stop offset="1" stop-color="#D4B098" stop-opacity="0"/>
</linearGradient>
<linearGradient id="paint1_linear_6173_57" x1="52.0682" y1="723.616" x2="704.92" y2="365.974" gradientUnits="userSpaceOnUse">
<stop stop-color="#D4B098"/>
<stop offset="1" stop-color="#D4B098" stop-opacity="0"/>
</linearGradient>
</defs>
</svg>
