<svg width="125" height="30" viewBox="0 0 125 30" fill="none" xmlns="http://www.w3.org/2000/svg">
<path d="M35.5581 9.89197C36.1181 9.89197 36.5941 9.9713 36.9861 10.13C37.3781 10.2886 37.7607 10.5126 38.1341 10.802C38.2367 10.886 38.3254 10.928 38.4001 10.928C38.5867 10.928 38.7081 10.648 38.7641 10.088H39.0861C39.0487 10.7226 39.0301 11.852 39.0301 13.476H38.7081C38.6241 12.7853 38.5121 12.258 38.3721 11.894C38.2321 11.53 37.9941 11.2126 37.6581 10.942C37.4247 10.718 37.1541 10.55 36.8461 10.438C36.5381 10.3166 36.2161 10.256 35.8801 10.256C34.9374 10.256 34.2374 10.718 33.7801 11.642C33.3227 12.5566 33.0941 13.7 33.0941 15.072C33.0941 16.4346 33.3321 17.5733 33.8081 18.488C34.2841 19.4026 34.9934 19.86 35.9361 19.86C36.2534 19.86 36.5661 19.804 36.8741 19.692C37.1914 19.5706 37.4574 19.398 37.6721 19.174C38.0174 18.9126 38.2554 18.586 38.3861 18.194C38.5261 17.802 38.6334 17.228 38.7081 16.472H39.0301C39.0301 18.1613 39.0487 19.3373 39.0861 20H38.7641C38.7361 19.7013 38.6941 19.4913 38.6381 19.37C38.5914 19.2393 38.5214 19.174 38.4281 19.174C38.3534 19.174 38.2554 19.2113 38.1341 19.286C37.7141 19.5846 37.3127 19.8133 36.9301 19.972C36.5474 20.1213 36.0854 20.196 35.5441 20.196C34.5547 20.196 33.6867 19.9953 32.9401 19.594C32.2027 19.1926 31.6287 18.614 31.2181 17.858C30.8074 17.0926 30.6021 16.1826 30.6021 15.128C30.6021 14.1013 30.8121 13.1913 31.2321 12.398C31.6521 11.6046 32.2354 10.9886 32.9821 10.55C33.7381 10.1113 34.5967 9.89197 35.5581 9.89197Z" fill="white"/>
<path d="M47.3891 9.89197C48.3785 9.89197 49.2418 10.0926 49.9791 10.494C50.7258 10.8953 51.3045 11.4786 51.7151 12.244C52.1258 13 52.3311 13.9053 52.3311 14.96C52.3311 15.9866 52.1211 16.8966 51.7011 17.69C51.2811 18.4833 50.6931 19.0993 49.9371 19.538C49.1905 19.9766 48.3365 20.196 47.3751 20.196C46.3858 20.196 45.5178 19.9953 44.7711 19.594C44.0338 19.1926 43.4598 18.614 43.0491 17.858C42.6385 17.0926 42.4331 16.1826 42.4331 15.128C42.4331 14.1013 42.6431 13.1913 43.0631 12.398C43.4831 11.6046 44.0665 10.9886 44.8131 10.55C45.5691 10.1113 46.4278 9.89197 47.3891 9.89197ZM47.3331 10.144C46.8198 10.144 46.3671 10.354 45.9751 10.774C45.5831 11.1846 45.2798 11.7633 45.0651 12.51C44.8598 13.2566 44.7571 14.1106 44.7571 15.072C44.7571 16.0426 44.8738 16.8966 45.1071 17.634C45.3498 18.3713 45.6718 18.9406 46.0731 19.342C46.4838 19.7433 46.9365 19.944 47.4311 19.944C47.9445 19.944 48.3971 19.7386 48.7891 19.328C49.1811 18.908 49.4798 18.3246 49.6851 17.578C49.8998 16.8313 50.0071 15.9773 50.0071 15.016C50.0071 14.0453 49.8858 13.1913 49.6431 12.454C49.4098 11.7166 49.0878 11.1473 48.6771 10.746C48.2758 10.3446 47.8278 10.144 47.3331 10.144Z" fill="white"/>
<path d="M64.4853 10.368C64.1773 10.4146 63.9487 10.494 63.7993 10.606C63.6593 10.718 63.5613 10.8953 63.5053 11.138C63.4587 11.3806 63.4353 11.74 63.4353 12.216V20.028L63.0993 20.014L62.7213 20.028L56.6453 12.328V17.704C56.6453 18.2546 56.6733 18.6606 56.7293 18.922C56.7853 19.174 56.9067 19.3606 57.0933 19.482C57.28 19.594 57.5833 19.6733 58.0033 19.72V20C57.6393 19.972 57.1353 19.958 56.4913 19.958C55.978 19.958 55.572 19.972 55.2733 20V19.72C55.5813 19.6733 55.8053 19.594 55.9453 19.482C56.0947 19.37 56.1927 19.1926 56.2393 18.95C56.2953 18.7073 56.3233 18.348 56.3233 17.872V11.572C56.3233 11.2173 56.2953 10.9606 56.2393 10.802C56.1927 10.6433 56.0947 10.536 55.9453 10.48C55.8053 10.424 55.5813 10.3866 55.2733 10.368V10.088C55.572 10.116 55.978 10.13 56.4913 10.13C56.958 10.13 57.3593 10.116 57.6953 10.088L63.1133 16.766V12.384C63.1133 11.8333 63.0853 11.432 63.0293 11.18C62.9733 10.9186 62.852 10.732 62.6653 10.62C62.4787 10.4986 62.1753 10.4146 61.7553 10.368V10.088C62.1193 10.116 62.6233 10.13 63.2673 10.13C63.79 10.13 64.196 10.116 64.4853 10.088V10.368Z" fill="white"/>
<path d="M77.6991 19.902C77.5405 20.9566 77.2185 21.6846 76.7331 22.086C76.5278 22.254 76.2665 22.3846 75.9491 22.478C75.6411 22.5806 75.3005 22.632 74.9271 22.632C74.4231 22.632 73.9238 22.5526 73.4291 22.394C72.9438 22.2353 72.3418 21.9973 71.6231 21.68C71.4458 21.6053 71.2498 21.5213 71.0351 21.428C70.8298 21.344 70.5965 21.2506 70.3351 21.148L69.9991 21.05C69.8218 21.1433 69.6258 21.2133 69.4111 21.26C69.2058 21.316 69.0098 21.344 68.8231 21.344C68.6271 21.344 68.4685 21.3113 68.3471 21.246C68.2258 21.19 68.1651 21.1013 68.1651 20.98C68.1651 20.728 68.4218 20.602 68.9351 20.602C69.2805 20.602 69.6351 20.6673 69.9991 20.798C70.3165 20.7046 70.6525 20.5786 71.0071 20.42C71.0725 20.392 71.1705 20.35 71.3011 20.294C71.4318 20.2473 71.5485 20.2053 71.6511 20.168C70.7831 20.084 70.0225 19.832 69.3691 19.412C68.7251 18.9826 68.2258 18.404 67.8711 17.676C67.5258 16.948 67.3531 16.0986 67.3531 15.128C67.3531 14.1013 67.5631 13.1913 67.9831 12.398C68.4031 11.6046 68.9865 10.9886 69.7331 10.55C70.4891 10.1113 71.3478 9.89197 72.3091 9.89197C73.2985 9.89197 74.1618 10.0926 74.8991 10.494C75.6458 10.8953 76.2245 11.4786 76.6351 12.244C77.0458 13 77.2511 13.9053 77.2511 14.96C77.2511 15.9493 77.0551 16.836 76.6631 17.62C76.2711 18.3946 75.7205 19.006 75.0111 19.454C74.3018 19.902 73.4945 20.1446 72.5891 20.182C72.3651 20.21 72.1645 20.252 71.9871 20.308C71.8098 20.364 71.5998 20.4433 71.3571 20.546C71.0585 20.6766 70.7691 20.784 70.4891 20.868L71.6231 20.966C72.8085 21.0686 73.6625 21.12 74.1851 21.12C74.5305 21.12 74.8805 21.0966 75.2351 21.05C75.8138 20.9846 76.2711 20.8586 76.6071 20.672C76.9431 20.4946 77.2231 20.2146 77.4471 19.832L77.6991 19.902ZM69.6771 15.072C69.6771 16.0426 69.7938 16.8966 70.0271 17.634C70.2698 18.3713 70.5918 18.9406 70.9931 19.342C71.4038 19.7433 71.8565 19.944 72.3511 19.944C72.8645 19.944 73.3171 19.7386 73.7091 19.328C74.1011 18.908 74.3998 18.3246 74.6051 17.578C74.8198 16.8313 74.9271 15.9773 74.9271 15.016C74.9271 14.0453 74.8058 13.1913 74.5631 12.454C74.3298 11.7166 74.0078 11.1473 73.5971 10.746C73.1958 10.3446 72.7478 10.144 72.2531 10.144C71.7398 10.144 71.2871 10.354 70.8951 10.774C70.5031 11.1846 70.1998 11.7633 69.9851 12.51C69.7798 13.2566 69.6771 14.1106 69.6771 15.072Z" fill="white"/>
<path d="M89.1383 10.368C88.8303 10.4146 88.6017 10.494 88.4523 10.606C88.3123 10.718 88.2143 10.8953 88.1583 11.138C88.1117 11.3806 88.0883 11.74 88.0883 12.216V15.926C88.0883 17.2606 87.897 18.25 87.5143 18.894C87.2623 19.3046 86.8983 19.6266 86.4223 19.86C85.9463 20.084 85.363 20.196 84.6723 20.196C83.5897 20.196 82.7497 19.9626 82.1523 19.496C81.723 19.1506 81.4337 18.7166 81.2843 18.194C81.135 17.662 81.0603 16.92 81.0603 15.968V11.572C81.0603 11.2173 81.0323 10.9606 80.9763 10.802C80.9297 10.6433 80.8317 10.536 80.6823 10.48C80.5423 10.424 80.3183 10.3866 80.0103 10.368V10.088C80.4863 10.116 81.2143 10.13 82.1943 10.13C83.165 10.13 83.907 10.116 84.4203 10.088V10.368C84.0843 10.3866 83.837 10.424 83.6783 10.48C83.529 10.536 83.4263 10.6433 83.3703 10.802C83.3143 10.9606 83.2863 11.2173 83.2863 11.572V16.85C83.2863 17.83 83.4263 18.5533 83.7063 19.02C83.9957 19.4773 84.4997 19.706 85.2183 19.706C86.1517 19.706 86.8097 19.3933 87.1923 18.768C87.575 18.1333 87.7663 17.2373 87.7663 16.08V12.384C87.7663 11.8426 87.7337 11.4413 87.6683 11.18C87.603 10.9186 87.477 10.732 87.2903 10.62C87.1037 10.4986 86.8097 10.4146 86.4083 10.368V10.088C86.763 10.116 87.267 10.13 87.9203 10.13C88.443 10.13 88.849 10.116 89.1383 10.088V10.368Z" fill="white"/>
<path d="M99.5047 17.872C99.5047 18.7306 99.5374 19.44 99.6027 20C98.968 19.972 97.8994 19.958 96.3967 19.958C94.362 19.958 92.8407 19.972 91.8327 20V19.72C92.1407 19.7013 92.3647 19.664 92.5047 19.608C92.654 19.552 92.752 19.4446 92.7987 19.286C92.8547 19.1273 92.8827 18.8706 92.8827 18.516V11.572C92.8827 11.2173 92.8547 10.9606 92.7987 10.802C92.752 10.6433 92.654 10.536 92.5047 10.48C92.3647 10.424 92.1407 10.3866 91.8327 10.368V10.088C92.8407 10.116 94.362 10.13 96.3967 10.13C97.7687 10.13 98.744 10.116 99.3227 10.088C99.2574 10.8626 99.2247 11.5533 99.2247 12.16C99.2247 12.5706 99.2387 12.888 99.2667 13.112H98.9447C98.8047 12.1133 98.5527 11.4133 98.1887 11.012C97.8247 10.6106 97.3114 10.41 96.6487 10.41H96.0747C95.7854 10.41 95.5754 10.4333 95.4447 10.48C95.314 10.5266 95.2254 10.62 95.1787 10.76C95.132 10.8906 95.1087 11.1053 95.1087 11.404V14.876H95.5567C96.0514 14.876 96.4247 14.694 96.6767 14.33C96.938 13.966 97.12 13.532 97.2227 13.028H97.5447C97.5167 13.42 97.5027 13.8586 97.5027 14.344V15.016C97.5027 15.492 97.5307 16.1546 97.5867 17.004H97.2647C97.0687 15.772 96.4994 15.156 95.5567 15.156H95.1087V18.684C95.1087 18.9826 95.132 19.202 95.1787 19.342C95.2254 19.4726 95.314 19.5613 95.4447 19.608C95.5754 19.6546 95.7854 19.678 96.0747 19.678H96.7607C97.4234 19.678 97.9554 19.454 98.3567 19.006C98.7674 18.5486 99.0567 17.7786 99.2247 16.696H99.5467C99.5187 17.004 99.5047 17.396 99.5047 17.872Z" fill="white"/>
<path d="M106.166 9.90597C106.651 9.90597 107.038 9.95263 107.328 10.046C107.617 10.1393 107.911 10.2746 108.21 10.452C108.312 10.508 108.401 10.5546 108.476 10.592C108.56 10.6293 108.63 10.648 108.686 10.648C108.77 10.648 108.835 10.6013 108.882 10.508C108.928 10.4053 108.966 10.2466 108.994 10.032H109.316C109.269 10.6573 109.246 11.7213 109.246 13.224H108.924C108.886 12.72 108.77 12.2393 108.574 11.782C108.387 11.3246 108.116 10.956 107.762 10.676C107.416 10.3866 107.01 10.242 106.544 10.242C106.086 10.242 105.713 10.3726 105.424 10.634C105.144 10.886 105.004 11.2313 105.004 11.67C105.004 11.9966 105.074 12.2813 105.214 12.524C105.354 12.7666 105.55 12.9906 105.802 13.196C106.054 13.392 106.441 13.6626 106.964 14.008L107.412 14.316C107.962 14.68 108.396 14.9973 108.714 15.268C109.031 15.5386 109.288 15.856 109.484 16.22C109.689 16.5746 109.792 16.99 109.792 17.466C109.792 18.0633 109.638 18.5673 109.33 18.978C109.022 19.3793 108.602 19.6826 108.07 19.888C107.547 20.0933 106.964 20.196 106.32 20.196C105.797 20.196 105.363 20.1493 105.018 20.056C104.672 19.9626 104.355 19.8366 104.066 19.678C103.86 19.5473 103.702 19.482 103.59 19.482C103.506 19.482 103.44 19.5333 103.394 19.636C103.347 19.7293 103.31 19.8833 103.282 20.098H102.96C102.997 19.51 103.016 18.25 103.016 16.318H103.338C103.403 17.3633 103.636 18.2126 104.038 18.866C104.439 19.51 105.055 19.832 105.886 19.832C106.39 19.832 106.805 19.6966 107.132 19.426C107.458 19.1553 107.622 18.768 107.622 18.264C107.622 17.7413 107.454 17.2933 107.118 16.92C106.782 16.5466 106.25 16.1266 105.522 15.66C104.962 15.296 104.514 14.9786 104.178 14.708C103.842 14.4373 103.566 14.12 103.352 13.756C103.137 13.3826 103.03 12.9533 103.03 12.468C103.03 11.908 103.17 11.4366 103.45 11.054C103.739 10.662 104.122 10.3726 104.598 10.186C105.074 9.9993 105.596 9.90597 106.166 9.90597Z" fill="white"/>
<path d="M121.314 10.088C121.248 10.9746 121.216 11.768 121.216 12.468C121.216 12.9066 121.23 13.2613 121.258 13.532H120.936C120.712 12.384 120.404 11.5766 120.012 11.11C119.629 10.6433 119.102 10.41 118.43 10.41H118.108V18.404C118.108 18.796 118.145 19.0806 118.22 19.258C118.304 19.4353 118.444 19.5566 118.64 19.622C118.845 19.678 119.167 19.7106 119.606 19.72V20C118.43 19.972 117.543 19.958 116.946 19.958C116.358 19.958 115.504 19.972 114.384 20V19.72C114.822 19.7106 115.14 19.678 115.336 19.622C115.541 19.5566 115.681 19.4353 115.756 19.258C115.84 19.0806 115.882 18.796 115.882 18.404V10.41H115.574C115.126 10.41 114.743 10.508 114.426 10.704C114.118 10.9 113.852 11.2266 113.628 11.684C113.404 12.132 113.212 12.748 113.054 13.532H112.732C112.76 13.2613 112.774 12.9066 112.774 12.468C112.774 11.768 112.741 10.9746 112.676 10.088C113.525 10.116 114.967 10.13 117.002 10.13C119.036 10.13 120.474 10.116 121.314 10.088Z" fill="white"/>
<path fill-rule="evenodd" clip-rule="evenodd" d="M25.5425 15.606C25.5424 15.6094 25.5422 15.6128 25.542 15.6163C25.3288 19.8681 22.958 23.9065 18.9327 26.0649C18.9229 26.0701 18.9132 26.0754 18.9034 26.0806C16.5603 27.3292 13.9985 27.76 11.546 27.472C11.2104 27.4326 10.8769 27.3798 10.5463 27.3138C6.99583 26.6045 3.77813 24.3728 1.93356 20.9327C-1.34343 14.8213 0.954315 7.21054 7.06571 3.93356C8.20565 3.32231 9.39775 2.90503 10.6042 2.67027C10.9368 2.60554 11.2705 2.55469 11.6045 2.51747C13.8686 2.26521 16.1461 2.63948 18.1902 3.56567C18.2001 3.57017 18.21 3.57468 18.2199 3.57921C20.6315 4.67952 22.7156 6.54934 24.0649 9.06571C25.1818 11.1486 25.6511 13.4057 25.5425 15.606ZM10.5994 4.71634L10.5511 25.2678C7.71675 24.5911 5.17911 22.7532 3.69615 19.9876C0.941142 14.8497 2.87289 8.45116 8.01083 5.69615C8.84907 5.24668 9.71872 4.92255 10.5994 4.71634ZM12.5505 25.5477L12.6 4.44785C14.2436 4.38713 15.8771 4.71329 17.3647 5.38738C19.4027 6.31087 21.1622 7.88464 22.3023 10.0108C23.2442 11.7675 23.6373 13.6657 23.5445 15.5161C23.365 19.0967 21.3696 22.4888 17.9876 24.3023C16.2534 25.2322 14.3801 25.6277 12.5505 25.5477Z" fill="url(#paint0_linear_6139_121)"/>
<defs>
<linearGradient id="paint0_linear_6139_121" x1="0.914146" y1="13.338" x2="27.354" y2="14.9979" gradientUnits="userSpaceOnUse">
<stop offset="0.288448" stop-color="white"/>
<stop offset="0.780176" stop-color="white" stop-opacity="0"/>
</linearGradient>
</defs>
</svg>
