<svg width="100" height="20" viewBox="0 0 100 20" fill="none" xmlns="http://www.w3.org/2000/svg">
<path d="M26.452 6.33618C26.98 6.33618 27.412 6.41618 27.748 6.57618C28.092 6.72818 28.396 6.90818 28.66 7.11618C28.82 7.23618 28.94 7.25218 29.02 7.16418C29.108 7.06818 29.168 6.84818 29.2 6.50418H29.476C29.46 6.80018 29.448 7.16018 29.44 7.58418C29.432 8.00818 29.428 8.56818 29.428 9.26418H29.152C29.096 8.92018 29.044 8.64818 28.996 8.44818C28.948 8.24018 28.888 8.06418 28.816 7.92018C28.752 7.77618 28.664 7.63218 28.552 7.48818C28.304 7.16018 27.992 6.92418 27.616 6.78018C27.24 6.62818 26.844 6.55218 26.428 6.55218C26.036 6.55218 25.68 6.65218 25.36 6.85218C25.048 7.04418 24.776 7.32418 24.544 7.69218C24.32 8.06018 24.144 8.50418 24.016 9.02418C23.896 9.54418 23.836 10.1282 23.836 10.7762C23.836 11.4482 23.904 12.0442 24.04 12.5642C24.176 13.0762 24.364 13.5082 24.604 13.8602C24.852 14.2122 25.14 14.4802 25.468 14.6642C25.804 14.8402 26.164 14.9282 26.548 14.9282C26.908 14.9282 27.284 14.8562 27.676 14.7122C28.068 14.5682 28.376 14.3362 28.6 14.0162C28.776 13.7842 28.896 13.5322 28.96 13.2602C29.032 12.9882 29.096 12.6082 29.152 12.1202H29.428C29.428 12.8482 29.432 13.4362 29.44 13.8842C29.448 14.3242 29.46 14.6962 29.476 15.0002H29.2C29.168 14.6562 29.112 14.4402 29.032 14.3522C28.96 14.2642 28.836 14.2762 28.66 14.3882C28.364 14.5962 28.048 14.7802 27.712 14.9402C27.384 15.0922 26.96 15.1682 26.44 15.1682C25.68 15.1682 25.012 14.9962 24.436 14.6522C23.868 14.3082 23.424 13.8122 23.104 13.1642C22.792 12.5162 22.636 11.7362 22.636 10.8242C22.636 9.92818 22.8 9.14418 23.128 8.47218C23.456 7.80018 23.904 7.27618 24.472 6.90018C25.048 6.52418 25.708 6.33618 26.452 6.33618Z" fill="#555248"/>
<path d="M36.3937 6.33618C37.1537 6.33618 37.8177 6.50818 38.3857 6.85218C38.9617 7.19618 39.4057 7.69218 39.7177 8.34018C40.0377 8.98018 40.1977 9.76018 40.1977 10.6802C40.1977 11.5762 40.0337 12.3602 39.7057 13.0322C39.3857 13.7042 38.9377 14.2282 38.3617 14.6042C37.7857 14.9802 37.1257 15.1682 36.3817 15.1682C35.6217 15.1682 34.9537 14.9962 34.3777 14.6522C33.8097 14.3082 33.3657 13.8122 33.0457 13.1642C32.7337 12.5162 32.5777 11.7362 32.5777 10.8242C32.5777 9.92818 32.7417 9.14418 33.0697 8.47218C33.3977 7.80018 33.8457 7.27618 34.4137 6.90018C34.9897 6.52418 35.6497 6.33618 36.3937 6.33618ZM36.3457 6.55218C35.8257 6.55218 35.3737 6.73218 34.9897 7.09218C34.6057 7.45218 34.3057 7.94818 34.0897 8.58018C33.8817 9.21218 33.7777 9.94418 33.7777 10.7762C33.7777 11.6242 33.8937 12.3642 34.1257 12.9962C34.3657 13.6202 34.6857 14.1042 35.0857 14.4482C35.4937 14.7842 35.9417 14.9522 36.4297 14.9522C36.9497 14.9522 37.4017 14.7722 37.7857 14.4122C38.1697 14.0522 38.4657 13.5562 38.6737 12.9242C38.8897 12.2842 38.9977 11.5522 38.9977 10.7282C38.9977 9.87218 38.8777 9.13218 38.6377 8.50818C38.4057 7.88418 38.0897 7.40418 37.6897 7.06818C37.2897 6.72418 36.8417 6.55218 36.3457 6.55218Z" fill="#555248"/>
<path d="M50.4625 6.50418V6.74418C50.1905 6.75218 49.9825 6.79218 49.8385 6.86418C49.7025 6.93618 49.6105 7.05218 49.5625 7.21218C49.5145 7.37218 49.4905 7.60018 49.4905 7.89618V15.0602C49.4425 15.0602 49.3945 15.0602 49.3465 15.0602C49.3065 15.0602 49.2625 15.0602 49.2145 15.0602L44.1745 7.27218V13.6082C44.1745 13.8962 44.1985 14.1242 44.2465 14.2922C44.3025 14.4522 44.4065 14.5682 44.5585 14.6402C44.7185 14.7042 44.9545 14.7442 45.2665 14.7602V15.0002C45.1225 14.9842 44.9345 14.9762 44.7025 14.9762C44.4705 14.9682 44.2505 14.9642 44.0425 14.9642C43.8425 14.9642 43.6385 14.9682 43.4305 14.9762C43.2305 14.9762 43.0625 14.9842 42.9265 15.0002V14.7602C43.1985 14.7442 43.4025 14.7042 43.5385 14.6402C43.6825 14.5682 43.7785 14.4522 43.8265 14.2922C43.8745 14.1242 43.8985 13.8962 43.8985 13.6082V7.77618C43.8985 7.48018 43.8745 7.26418 43.8265 7.12818C43.7785 6.98418 43.6825 6.88818 43.5385 6.84018C43.4025 6.78418 43.1985 6.75218 42.9265 6.74418V6.50418C43.0625 6.51218 43.2305 6.52018 43.4305 6.52818C43.6385 6.53618 43.8425 6.54018 44.0425 6.54018C44.2185 6.54018 44.3865 6.53618 44.5465 6.52818C44.7065 6.52018 44.8505 6.51218 44.9785 6.50418L49.2145 13.0322V7.89618C49.2145 7.60018 49.1865 7.37218 49.1305 7.21218C49.0825 7.05218 48.9785 6.93618 48.8185 6.86418C48.6665 6.79218 48.4345 6.75218 48.1225 6.74418V6.50418C48.2665 6.51218 48.4545 6.52018 48.6865 6.52818C48.9265 6.53618 49.1465 6.54018 49.3465 6.54018C49.5545 6.54018 49.7585 6.53618 49.9585 6.52818C50.1665 6.52018 50.3345 6.51218 50.4625 6.50418Z" fill="#555248"/>
<path d="M61.4691 15.2762L61.6491 15.3482C61.5531 15.6762 61.4411 15.9482 61.3131 16.1642C61.1931 16.3882 61.0531 16.5722 60.8931 16.7162C60.7411 16.8522 60.5331 16.9762 60.2691 17.0882C60.0131 17.2002 59.6811 17.2562 59.2731 17.2562C58.8491 17.2562 58.4371 17.1842 58.0371 17.0402C57.6451 16.9042 57.2371 16.7362 56.8131 16.5362C56.3891 16.3362 55.9211 16.1522 55.4091 15.9842C55.3531 15.9682 55.3011 15.9522 55.2531 15.9362C55.2051 15.9202 55.1611 15.9082 55.1211 15.9002C54.9691 15.9562 54.8051 16.0002 54.6291 16.0322C54.4531 16.0642 54.2851 16.0802 54.1251 16.0802C53.9651 16.0802 53.8331 16.0602 53.7291 16.0202C53.6251 15.9802 53.5731 15.9202 53.5731 15.8402C53.5731 15.6722 53.7891 15.5882 54.2211 15.5882C54.5011 15.5882 54.8011 15.6202 55.1211 15.6842C55.4091 15.6042 55.6571 15.5122 55.8651 15.4082C56.0731 15.3122 56.2851 15.2202 56.5011 15.1322C56.7251 15.0442 56.9931 14.9882 57.3051 14.9642L57.3171 15.1562C57.0771 15.1802 56.8691 15.2242 56.6931 15.2882C56.5171 15.3602 56.3411 15.4362 56.1651 15.5162C55.9891 15.5962 55.7811 15.6722 55.5411 15.7442C55.9411 15.8242 56.3771 15.9082 56.8491 15.9962C57.3211 16.0842 57.7771 16.1602 58.2171 16.2242C58.6571 16.2882 59.0331 16.3202 59.3451 16.3202C59.9211 16.3202 60.3731 16.2362 60.7011 16.0682C61.0371 15.9002 61.2931 15.6362 61.4691 15.2762ZM56.9451 6.33618C57.7051 6.33618 58.3691 6.50818 58.9371 6.85218C59.5131 7.19618 59.9571 7.69218 60.2691 8.34018C60.5891 8.98018 60.7491 9.76018 60.7491 10.6802C60.7491 11.5762 60.5851 12.3602 60.2571 13.0322C59.9371 13.7042 59.4891 14.2282 58.9131 14.6042C58.3371 14.9802 57.6771 15.1682 56.9331 15.1682C56.1731 15.1682 55.5051 14.9962 54.9291 14.6522C54.3611 14.3082 53.9171 13.8122 53.5971 13.1642C53.2851 12.5162 53.1291 11.7362 53.1291 10.8242C53.1291 9.92818 53.2931 9.14418 53.6211 8.47218C53.9491 7.80018 54.3971 7.27618 54.9651 6.90018C55.5411 6.52418 56.2011 6.33618 56.9451 6.33618ZM56.8971 6.55218C56.3771 6.55218 55.9251 6.73218 55.5411 7.09218C55.1571 7.45218 54.8571 7.94818 54.6411 8.58018C54.4331 9.21218 54.3291 9.94418 54.3291 10.7762C54.3291 11.6242 54.4451 12.3642 54.6771 12.9962C54.9171 13.6202 55.2371 14.1042 55.6371 14.4482C56.0451 14.7842 56.4931 14.9522 56.9811 14.9522C57.5011 14.9522 57.9531 14.7722 58.3371 14.4122C58.7211 14.0522 59.0171 13.5562 59.2251 12.9242C59.4411 12.2842 59.5491 11.5522 59.5491 10.7282C59.5491 9.87218 59.4291 9.13218 59.1891 8.50818C58.9571 7.88418 58.6411 7.40418 58.2411 7.06818C57.8411 6.72418 57.3931 6.55218 56.8971 6.55218Z" fill="#555248"/>
<path d="M70.8573 6.50418V6.74418C70.5853 6.75218 70.3773 6.79218 70.2333 6.86418C70.0973 6.93618 70.0053 7.05218 69.9573 7.21218C69.9093 7.37218 69.8853 7.60018 69.8853 7.89618V11.5082C69.8853 12.0682 69.8493 12.5562 69.7773 12.9722C69.7053 13.3882 69.5773 13.7482 69.3933 14.0522C69.1933 14.3882 68.9013 14.6602 68.5173 14.8682C68.1333 15.0682 67.6933 15.1682 67.1973 15.1682C66.8133 15.1682 66.4453 15.1202 66.0933 15.0242C65.7493 14.9362 65.4453 14.7682 65.1813 14.5202C64.9493 14.2962 64.7653 14.0602 64.6293 13.8122C64.5013 13.5642 64.4133 13.2602 64.3653 12.9002C64.3173 12.5402 64.2933 12.0882 64.2933 11.5442V7.77618C64.2933 7.48018 64.2693 7.26418 64.2213 7.12818C64.1733 6.98418 64.0773 6.88818 63.9333 6.84018C63.7973 6.78418 63.5933 6.75218 63.3213 6.74418V6.50418C63.4893 6.51218 63.7093 6.52018 63.9813 6.52818C64.2533 6.53618 64.5453 6.54018 64.8573 6.54018C65.1373 6.54018 65.4133 6.53618 65.6853 6.52818C65.9653 6.52018 66.1973 6.51218 66.3813 6.50418V6.74418C66.1093 6.75218 65.9013 6.78418 65.7573 6.84018C65.6213 6.88818 65.5293 6.98418 65.4813 7.12818C65.4333 7.26418 65.4093 7.48018 65.4093 7.77618V11.7482C65.4093 12.1562 65.4293 12.5442 65.4693 12.9122C65.5093 13.2722 65.5893 13.5922 65.7093 13.8722C65.8373 14.1442 66.0293 14.3602 66.2853 14.5202C66.5413 14.6722 66.8813 14.7482 67.3053 14.7482C67.9133 14.7482 68.3813 14.6162 68.7093 14.3522C69.0453 14.0802 69.2773 13.7082 69.4053 13.2362C69.5413 12.7642 69.6093 12.2322 69.6093 11.6402V7.89618C69.6093 7.60018 69.5733 7.37218 69.5013 7.21218C69.4373 7.05218 69.3253 6.93618 69.1653 6.86418C69.0053 6.79218 68.7893 6.75218 68.5173 6.74418V6.50418C68.6613 6.51218 68.8493 6.52018 69.0813 6.52818C69.3213 6.53618 69.5413 6.54018 69.7413 6.54018C69.9493 6.54018 70.1533 6.53618 70.3533 6.52818C70.5613 6.52018 70.7293 6.51218 70.8573 6.50418Z" fill="#555248"/>
<path d="M79.349 6.50418C79.317 6.78418 79.293 7.05618 79.277 7.32018C79.269 7.58418 79.265 7.78418 79.265 7.92018C79.265 8.06418 79.269 8.20418 79.277 8.34018C79.285 8.46818 79.293 8.57618 79.301 8.66418H79.025C78.977 8.19218 78.909 7.82018 78.821 7.54818C78.733 7.26818 78.581 7.07218 78.365 6.96018C78.157 6.84018 77.841 6.78018 77.417 6.78018H76.421C76.149 6.78018 75.941 6.80418 75.797 6.85218C75.661 6.89218 75.569 6.98418 75.521 7.12818C75.473 7.26418 75.449 7.48018 75.449 7.77618V13.7282C75.449 14.0162 75.473 14.2322 75.521 14.3762C75.569 14.5202 75.661 14.6162 75.797 14.6642C75.941 14.7042 76.149 14.7242 76.421 14.7242H77.297C77.801 14.7242 78.181 14.6562 78.437 14.5202C78.701 14.3842 78.889 14.1642 79.001 13.8602C79.121 13.5482 79.209 13.1282 79.265 12.6002H79.541C79.517 12.8162 79.505 13.1042 79.505 13.4642C79.505 13.6162 79.509 13.8362 79.517 14.1242C79.533 14.4042 79.557 14.6962 79.589 15.0002C79.181 14.9842 78.721 14.9762 78.209 14.9762C77.697 14.9682 77.241 14.9642 76.841 14.9642C76.665 14.9642 76.437 14.9642 76.157 14.9642C75.885 14.9642 75.589 14.9682 75.269 14.9762C74.949 14.9762 74.625 14.9802 74.297 14.9882C73.969 14.9882 73.657 14.9922 73.361 15.0002V14.7602C73.633 14.7442 73.837 14.7122 73.973 14.6642C74.117 14.6162 74.213 14.5202 74.261 14.3762C74.309 14.2322 74.333 14.0162 74.333 13.7282V7.77618C74.333 7.48018 74.309 7.26418 74.261 7.12818C74.213 6.98418 74.117 6.88818 73.973 6.84018C73.837 6.78418 73.633 6.75218 73.361 6.74418V6.50418C73.657 6.51218 73.969 6.52018 74.297 6.52818C74.625 6.52818 74.949 6.53218 75.269 6.54018C75.589 6.54018 75.885 6.54018 76.157 6.54018C76.437 6.54018 76.665 6.54018 76.841 6.54018C77.209 6.54018 77.625 6.54018 78.089 6.54018C78.561 6.53218 78.981 6.52018 79.349 6.50418ZM77.285 10.6082C77.285 10.6082 77.285 10.6482 77.285 10.7282C77.285 10.8082 77.285 10.8482 77.285 10.8482H75.089C75.089 10.8482 75.089 10.8082 75.089 10.7282C75.089 10.6482 75.089 10.6082 75.089 10.6082H77.285ZM77.633 9.02418C77.601 9.48018 77.585 9.82818 77.585 10.0682C77.593 10.3082 77.597 10.5282 77.597 10.7282C77.597 10.9282 77.601 11.1482 77.609 11.3882C77.617 11.6282 77.637 11.9762 77.669 12.4322H77.393C77.361 12.1762 77.321 11.9282 77.273 11.6882C77.233 11.4402 77.137 11.2402 76.985 11.0882C76.841 10.9282 76.593 10.8482 76.241 10.8482V10.6082C76.505 10.6082 76.705 10.5562 76.841 10.4522C76.985 10.3402 77.089 10.2002 77.153 10.0322C77.217 9.86418 77.261 9.69218 77.285 9.51618C77.309 9.33218 77.333 9.16818 77.357 9.02418H77.633Z" fill="#555248"/>
<path d="M84.9215 6.37218C85.3215 6.37218 85.6255 6.42018 85.8335 6.51618C86.0415 6.60418 86.2255 6.70418 86.3855 6.81618C86.4815 6.87218 86.5575 6.91618 86.6135 6.94818C86.6775 6.97218 86.7375 6.98418 86.7935 6.98418C86.8735 6.98418 86.9295 6.94018 86.9615 6.85218C87.0015 6.76418 87.0335 6.63218 87.0575 6.45618H87.3335C87.3255 6.59218 87.3135 6.75618 87.2975 6.94818C87.2895 7.13218 87.2815 7.38018 87.2735 7.69218C87.2735 7.99618 87.2735 8.40018 87.2735 8.90418H86.9975C86.9735 8.52018 86.8895 8.15218 86.7455 7.80018C86.6015 7.44818 86.3895 7.16018 86.1095 6.93618C85.8375 6.71218 85.4775 6.60018 85.0295 6.60018C84.6055 6.60018 84.2535 6.72818 83.9735 6.98418C83.7015 7.24018 83.5655 7.57618 83.5655 7.99218C83.5655 8.35218 83.6575 8.65618 83.8415 8.90418C84.0255 9.14418 84.2695 9.36418 84.5735 9.56418C84.8855 9.75618 85.2215 9.96418 85.5815 10.1882C85.9975 10.4442 86.3655 10.7002 86.6855 10.9562C87.0135 11.2042 87.2695 11.4802 87.4535 11.7842C87.6455 12.0882 87.7415 12.4562 87.7415 12.8882C87.7415 13.4002 87.6255 13.8242 87.3935 14.1602C87.1615 14.4962 86.8535 14.7482 86.4695 14.9162C86.0855 15.0842 85.6615 15.1682 85.1975 15.1682C84.7735 15.1682 84.4375 15.1202 84.1895 15.0242C83.9415 14.9282 83.7295 14.8282 83.5535 14.7242C83.3775 14.6122 83.2415 14.5562 83.1455 14.5562C83.0655 14.5562 83.0055 14.6002 82.9655 14.6882C82.9335 14.7762 82.9055 14.9082 82.8815 15.0842H82.6055C82.6215 14.9162 82.6295 14.7202 82.6295 14.4962C82.6375 14.2642 82.6415 13.9642 82.6415 13.5962C82.6495 13.2282 82.6535 12.7642 82.6535 12.2042H82.9295C82.9615 12.6842 83.0495 13.1322 83.1935 13.5482C83.3455 13.9642 83.5735 14.3002 83.8775 14.5562C84.1895 14.8042 84.6015 14.9282 85.1135 14.9282C85.3775 14.9282 85.6255 14.8762 85.8575 14.7722C86.0975 14.6602 86.2935 14.4882 86.4455 14.2562C86.5975 14.0162 86.6735 13.7082 86.6735 13.3322C86.6735 13.0042 86.5935 12.7202 86.4335 12.4802C86.2815 12.2322 86.0655 12.0042 85.7855 11.7962C85.5055 11.5802 85.1775 11.3602 84.8015 11.1362C84.4255 10.9042 84.0735 10.6682 83.7455 10.4282C83.4175 10.1882 83.1535 9.91218 82.9535 9.60018C82.7615 9.28018 82.6655 8.89618 82.6655 8.44818C82.6655 7.97618 82.7695 7.58818 82.9775 7.28418C83.1935 6.97218 83.4735 6.74418 83.8175 6.60018C84.1615 6.44818 84.5295 6.37218 84.9215 6.37218Z" fill="#555248"/>
<path d="M97.114 6.50418C97.082 6.80818 97.058 7.10418 97.042 7.39218C97.034 7.67218 97.03 7.88818 97.03 8.04018C97.03 8.23218 97.034 8.41218 97.042 8.58018C97.05 8.74818 97.058 8.89618 97.066 9.02418H96.79C96.734 8.46418 96.658 8.02418 96.562 7.70418C96.466 7.37618 96.298 7.14018 96.058 6.99618C95.818 6.85218 95.446 6.78018 94.942 6.78018H94.294V13.6082C94.294 13.9282 94.322 14.1682 94.378 14.3282C94.442 14.4882 94.562 14.5962 94.738 14.6522C94.914 14.7082 95.17 14.7442 95.506 14.7602V15.0002C95.298 14.9842 95.034 14.9762 94.714 14.9762C94.394 14.9682 94.07 14.9642 93.742 14.9642C93.382 14.9642 93.042 14.9682 92.722 14.9762C92.41 14.9762 92.158 14.9842 91.966 15.0002V14.7602C92.302 14.7442 92.558 14.7082 92.734 14.6522C92.91 14.5962 93.026 14.4882 93.082 14.3282C93.146 14.1682 93.178 13.9282 93.178 13.6082V6.78018H92.53C92.034 6.78018 91.662 6.85218 91.414 6.99618C91.174 7.14018 91.006 7.37618 90.91 7.70418C90.814 8.02418 90.738 8.46418 90.682 9.02418H90.406C90.422 8.89618 90.43 8.74818 90.43 8.58018C90.438 8.41218 90.442 8.23218 90.442 8.04018C90.442 7.88818 90.434 7.67218 90.418 7.39218C90.41 7.10418 90.39 6.80818 90.358 6.50418C90.694 6.51218 91.058 6.52018 91.45 6.52818C91.85 6.53618 92.25 6.54018 92.65 6.54018C93.05 6.54018 93.414 6.54018 93.742 6.54018C94.07 6.54018 94.43 6.54018 94.822 6.54018C95.222 6.54018 95.622 6.53618 96.022 6.52818C96.422 6.52018 96.786 6.51218 97.114 6.50418Z" fill="#555248"/>
<path fill-rule="evenodd" clip-rule="evenodd" d="M19.1858 10.4596C19.1857 10.4613 19.1856 10.463 19.1855 10.4647C19.0225 13.7145 17.2105 16.8012 14.1339 18.4509C14.129 18.4535 14.1241 18.4561 14.1192 18.4587C12.3262 19.4162 10.3652 19.7468 8.48801 19.5264C8.32067 19.5068 8.154 19.4827 7.98818 19.4544C5.17051 18.9727 2.59651 17.2426 1.14104 14.5282C-1.36363 9.85714 0.392587 4.04002 5.06366 1.53533C6.01814 1.02353 7.02046 0.689642 8.0326 0.522175C8.19911 0.494624 8.36589 0.471578 8.53277 0.452984C10.2632 0.260175 12.004 0.546238 13.5663 1.25415C13.5713 1.2564 13.5762 1.25866 13.5812 1.26092C15.4278 2.10143 17.0237 3.53191 18.0565 5.45797C18.9106 7.05084 19.2692 8.77697 19.1858 10.4596ZM9.03052 1.41261C10.4513 1.31948 11.8694 1.58309 13.1536 2.165C14.8134 2.91711 16.247 4.19955 17.1752 5.93053C17.9418 7.36029 18.2624 8.90697 18.1868 10.4146C18.0406 13.3288 16.4163 16.0923 13.6613 17.5696C12.1729 18.3677 10.5571 18.6826 8.99026 18.5697L9.03052 1.41261ZM8.03022 1.53785L7.99056 18.4386C5.52946 17.9684 3.29719 16.4332 2.02234 14.0557C-0.221345 9.87131 1.35188 4.66033 5.53622 2.41663C6.34034 1.98545 7.18088 1.69565 8.03022 1.53785Z" fill="url(#paint0_linear_6139_102)"/>
<defs>
<linearGradient id="paint0_linear_6139_102" x1="0.361944" y1="8.7235" x2="20.5705" y2="9.99221" gradientUnits="userSpaceOnUse">
<stop offset="0.288448" stop-color="#555248"/>
<stop offset="0.780176" stop-color="#1B1A17" stop-opacity="0"/>
</linearGradient>
</defs>
</svg>
