<svg width="745" height="906" fill="none" xmlns="http://www.w3.org/2000/svg"><path d="M350.627 96.923c47.75 88.502 14.715 198.955-73.787 246.704-88.501 47.75-198.954 14.715-246.704-73.787-47.75-88.501-14.714-198.954 73.787-246.704S302.878 8.422 350.627 96.923Z" stroke="url(#a)"/><path d="M699.398 356.793c97.473 180.66 30.037 406.132-150.624 503.605-180.661 97.473-406.133 30.037-503.606-150.624-97.473-180.661-30.036-406.133 150.625-503.606 180.66-97.473 406.132-30.036 503.605 150.625Z" stroke="url(#b)"/><defs><linearGradient id="a" x1="33.297" y1="276.751" x2="353.56" y2="101.306" gradientUnits="userSpaceOnUse"><stop stop-color="#D4B098"/><stop offset="1" stop-color="#D4B098" stop-opacity="0"/></linearGradient><linearGradient id="b" x1="52.068" y1="723.616" x2="704.92" y2="365.974" gradientUnits="userSpaceOnUse"><stop stop-color="#D4B098"/><stop offset="1" stop-color="#D4B098" stop-opacity="0"/></linearGradient></defs></svg>