<svg width="125" height="30" fill="none" xmlns="http://www.w3.org/2000/svg"><path d="M35.558 9.892c.56 0 1.036.08 1.428.238.392.159.775.383 1.148.672.103.084.191.126.266.126.187 0 .308-.28.364-.84h.322c-.037.635-.056 1.764-.056 3.388h-.322c-.084-.69-.196-1.218-.336-1.582a2.256 2.256 0 0 0-.714-.952 2.289 2.289 0 0 0-.812-.504 2.61 2.61 0 0 0-.966-.182c-.943 0-1.643.462-2.1 1.386-.457.915-.686 2.058-.686 3.43 0 1.363.238 2.501.714 3.416s1.185 1.372 2.128 1.372c.317 0 .63-.056.938-.168.317-.121.583-.294.798-.518.345-.261.583-.588.714-.98.14-.392.247-.966.322-1.722h.322c0 1.69.019 2.865.056 3.528h-.322c-.028-.299-.07-.509-.126-.63-.047-.13-.117-.196-.21-.196-.075 0-.173.037-.294.112-.42.299-.821.527-1.204.686-.383.15-.845.224-1.386.224-.99 0-1.857-.2-2.604-.602a4.227 4.227 0 0 1-1.722-1.736c-.41-.765-.616-1.675-.616-2.73 0-1.027.21-1.937.63-2.73a4.577 4.577 0 0 1 1.75-1.848c.756-.439 1.615-.658 2.576-.658Zm11.832 0c.989 0 1.852.2 2.59.602a4.184 4.184 0 0 1 1.735 1.75c.41.756.616 1.661.616 2.716 0 1.027-.21 1.937-.63 2.73a4.55 4.55 0 0 1-1.764 1.848c-.746.439-1.6.658-2.562.658-.99 0-1.857-.2-2.604-.602a4.228 4.228 0 0 1-1.722-1.736c-.41-.765-.616-1.675-.616-2.73 0-1.027.21-1.937.63-2.73a4.578 4.578 0 0 1 1.75-1.848c.756-.439 1.615-.658 2.576-.658Zm-.057.252c-.513 0-.966.21-1.358.63-.392.41-.695.99-.91 1.736-.205.747-.308 1.6-.308 2.562 0 .97.117 1.825.35 2.562.243.737.565 1.307.966 1.708.41.401.864.602 1.358.602.514 0 .966-.205 1.358-.616.392-.42.69-1.003.896-1.75.215-.747.322-1.6.322-2.562 0-.97-.121-1.825-.364-2.562-.233-.737-.555-1.307-.966-1.708-.401-.401-.85-.602-1.344-.602Zm17.152.224c-.308.047-.536.126-.686.238-.14.112-.238.29-.294.532-.046.243-.07.602-.07 1.078v7.812l-.336-.014-.378.014-6.076-7.7v5.376c0 .55.028.957.084 1.218.056.252.178.439.364.56.187.112.49.191.91.238V20a20.923 20.923 0 0 0-1.512-.042c-.513 0-.919.014-1.218.042v-.28c.308-.047.532-.126.672-.238.15-.112.248-.29.294-.532.056-.243.084-.602.084-1.078v-6.3c0-.355-.028-.611-.084-.77a.464.464 0 0 0-.294-.322c-.14-.056-.364-.093-.672-.112v-.28c.299.028.705.042 1.218.042.467 0 .868-.014 1.204-.042l5.418 6.678v-4.382c0-.55-.028-.952-.084-1.204-.056-.261-.177-.448-.364-.56-.186-.121-.49-.205-.91-.252v-.28c.364.028.868.042 1.512.042.523 0 .929-.014 1.218-.042v.28ZM77.7 19.902c-.16 1.055-.481 1.783-.967 2.184a2.206 2.206 0 0 1-.784.392 3.219 3.219 0 0 1-1.022.154 4.88 4.88 0 0 1-1.498-.238 20.163 20.163 0 0 1-1.806-.714 57.58 57.58 0 0 1-.588-.252 52.959 52.959 0 0 0-.7-.28L70 21.05a2.31 2.31 0 0 1-.588.21 2.234 2.234 0 0 1-.588.084c-.196 0-.354-.033-.476-.098-.121-.056-.182-.145-.182-.266 0-.252.257-.378.77-.378.346 0 .7.065 1.064.196.318-.093.654-.22 1.008-.378l.294-.126.35-.126c-.868-.084-1.629-.336-2.282-.756a4.31 4.31 0 0 1-1.498-1.736c-.345-.728-.518-1.577-.518-2.548 0-1.027.21-1.937.63-2.73a4.578 4.578 0 0 1 1.75-1.848c.756-.439 1.615-.658 2.576-.658.99 0 1.853.2 2.59.602a4.184 4.184 0 0 1 1.736 1.75c.41.756.616 1.661.616 2.716 0 .99-.196 1.876-.588 2.66a4.554 4.554 0 0 1-1.652 1.834c-.71.448-1.516.69-2.422.728-.224.028-.424.07-.602.126a7.297 7.297 0 0 0-.63.238c-.299.13-.588.238-.868.322l1.134.098c1.185.103 2.04.154 2.562.154.346 0 .695-.023 1.05-.07.579-.065 1.036-.191 1.372-.378.336-.177.616-.457.84-.84l.252.07Zm-8.023-4.83c0 .97.117 1.825.35 2.562.243.737.565 1.307.966 1.708.41.401.864.602 1.358.602.514 0 .966-.205 1.358-.616.392-.42.69-1.003.896-1.75.215-.747.322-1.6.322-2.562 0-.97-.121-1.825-.364-2.562-.233-.737-.555-1.307-.966-1.708-.401-.401-.85-.602-1.344-.602-.513 0-.966.21-1.358.63-.392.41-.695.99-.91 1.736-.205.747-.308 1.6-.308 2.562Zm19.461-4.704c-.308.047-.536.126-.686.238-.14.112-.238.29-.294.532-.046.243-.07.602-.07 1.078v3.71c0 1.335-.191 2.324-.574 2.968-.252.41-.616.733-1.092.966-.476.224-1.059.336-1.75.336-1.082 0-1.922-.233-2.52-.7a2.527 2.527 0 0 1-.868-1.302c-.149-.532-.224-1.274-.224-2.226v-4.396c0-.355-.028-.611-.084-.77a.464.464 0 0 0-.294-.322c-.14-.056-.364-.093-.672-.112v-.28c.476.028 1.204.042 2.184.042.971 0 1.713-.014 2.226-.042v.28c-.336.019-.583.056-.742.112a.504.504 0 0 0-.308.322c-.056.159-.084.415-.084.77v5.278c0 .98.14 1.703.42 2.17.29.457.794.686 1.512.686.934 0 1.592-.313 1.974-.938.383-.635.574-1.53.574-2.688v-3.696c0-.541-.032-.943-.098-1.204-.065-.261-.191-.448-.378-.56-.186-.121-.48-.205-.882-.252v-.28c.355.028.859.042 1.512.042.523 0 .929-.014 1.218-.042v.28Zm10.367 7.504c0 .859.032 1.568.098 2.128a83.467 83.467 0 0 0-3.206-.042c-2.035 0-3.556.014-4.564.042v-.28c.308-.019.532-.056.672-.112a.464.464 0 0 0 .294-.322c.056-.159.084-.415.084-.77v-6.944c0-.355-.028-.611-.084-.77a.464.464 0 0 0-.294-.322c-.14-.056-.364-.093-.672-.112v-.28c1.008.028 2.529.042 4.564.042 1.372 0 2.347-.014 2.926-.042a24.948 24.948 0 0 0-.098 2.072c0 .41.014.728.042.952h-.322c-.14-.999-.392-1.699-.756-2.1s-.878-.602-1.54-.602h-.574c-.29 0-.5.023-.63.07a.42.42 0 0 0-.266.28c-.047.13-.07.345-.07.644v3.472h.448c.494 0 .868-.182 1.12-.546.261-.364.443-.798.546-1.302h.322c-.028.392-.042.83-.042 1.316v.672c0 .476.028 1.139.084 1.988h-.322c-.196-1.232-.766-1.848-1.708-1.848h-.448v3.528c0 .299.023.518.07.658a.42.42 0 0 0 .266.266c.13.047.34.07.63.07h.686c.662 0 1.194-.224 1.596-.672.41-.457.7-1.227.868-2.31h.322c-.028.308-.042.7-.042 1.176Zm6.661-7.966c.485 0 .872.047 1.162.14.289.093.583.229.882.406.102.056.191.103.266.14a.543.543 0 0 0 .21.056c.084 0 .149-.047.196-.14.046-.103.084-.261.112-.476h.322c-.047.625-.07 1.69-.07 3.192h-.322a4.491 4.491 0 0 0-.35-1.442 2.662 2.662 0 0 0-.812-1.106 1.84 1.84 0 0 0-1.218-.434c-.458 0-.831.13-1.12.392-.28.252-.42.597-.42 1.036 0 .327.07.611.21.854.14.243.336.467.588.672.252.196.639.467 1.162.812l.448.308c.55.364.984.681 1.302.952.317.27.574.588.77.952.205.355.308.77.308 1.246 0 .597-.154 1.101-.462 1.512-.308.401-.728.705-1.26.91a4.752 4.752 0 0 1-1.75.308c-.523 0-.957-.047-1.302-.14a4.298 4.298 0 0 1-.952-.378c-.206-.13-.364-.196-.476-.196-.084 0-.15.051-.196.154-.047.093-.084.247-.112.462h-.322c.037-.588.056-1.848.056-3.78h.322c.065 1.045.298 1.895.7 2.548.401.644 1.017.966 1.848.966.504 0 .919-.135 1.246-.406.326-.27.49-.658.49-1.162 0-.523-.168-.97-.504-1.344-.336-.373-.868-.793-1.596-1.26a16.79 16.79 0 0 1-1.344-.952 3.483 3.483 0 0 1-.826-.952 2.534 2.534 0 0 1-.322-1.288c0-.56.14-1.031.42-1.414a2.547 2.547 0 0 1 1.148-.868 4.25 4.25 0 0 1 1.568-.28Zm15.148.182c-.066.887-.098 1.68-.098 2.38 0 .439.014.793.042 1.064h-.322c-.224-1.148-.532-1.955-.924-2.422-.383-.467-.91-.7-1.582-.7h-.322v7.994c0 .392.037.677.112.854a.682.682 0 0 0 .42.364c.205.056.527.089.966.098V20a121.781 121.781 0 0 0-2.66-.042c-.588 0-1.442.014-2.562.042v-.28c.438-.01.756-.042.952-.098a.638.638 0 0 0 .42-.364c.084-.177.126-.462.126-.854V10.41h-.308c-.448 0-.831.098-1.148.294-.308.196-.574.523-.798.98-.224.448-.416 1.064-.574 1.848h-.322c.028-.27.042-.625.042-1.064 0-.7-.033-1.493-.098-2.38.849.028 2.291.042 4.326.042 2.034 0 3.472-.014 4.312-.042Z" fill="#fff"/><path fill-rule="evenodd" clip-rule="evenodd" d="m25.543 15.606-.001.01a12.55 12.55 0 0 1-6.61 10.449l-.029.016a12.497 12.497 0 0 1-8.357 1.233 12.53 12.53 0 0 1-8.612-6.381c-3.277-6.112-.98-13.722 5.132-17a12.553 12.553 0 0 1 4.538-1.416A12.594 12.594 0 0 1 18.22 3.58a12.501 12.501 0 0 1 5.845 5.487 12.497 12.497 0 0 1 1.477 6.54ZM10.598 4.716l-.048 20.552a10.527 10.527 0 0 1-6.855-5.28C.941 14.85 2.873 8.45 8.011 5.696c.838-.45 1.708-.773 2.588-.98Zm1.951 20.832.05-21.1c1.644-.06 3.277.265 4.765.94a10.502 10.502 0 0 1 4.937 4.623 10.55 10.55 0 0 1-4.315 14.291 10.498 10.498 0 0 1-5.437 1.246Z" fill="url(#a)"/><defs><linearGradient id="a" x1=".914" y1="13.338" x2="27.354" y2="14.998" gradientUnits="userSpaceOnUse"><stop offset=".288" stop-color="#fff"/><stop offset=".78" stop-color="#fff" stop-opacity="0"/></linearGradient></defs></svg>