<svg width="100" height="20" fill="none" xmlns="http://www.w3.org/2000/svg"><path d="M26.452 6.336c.528 0 .96.08 1.296.24.344.152.648.332.912.54.16.12.28.136.36.048.088-.096.148-.316.18-.66h.276c-.016.296-.028.656-.036 1.08-.008.424-.012.984-.012 1.68h-.276a11.798 11.798 0 0 0-.156-.816 2.388 2.388 0 0 0-.18-.528 2.09 2.09 0 0 0-.264-.432 2.092 2.092 0 0 0-.936-.708 3.14 3.14 0 0 0-1.188-.228c-.392 0-.748.1-1.068.3a2.568 2.568 0 0 0-.816.84c-.224.368-.4.812-.528 1.332-.12.52-.18 1.104-.18 1.752 0 .672.068 1.268.204 1.788.136.512.324.944.564 1.296.248.352.536.62.864.804.336.176.696.264 1.08.264.36 0 .736-.072 1.128-.216.392-.144.7-.376.924-.696.176-.232.296-.484.36-.756.072-.272.136-.652.192-1.14h.276c0 .728.004 1.316.012 1.764.008.44.02.812.036 1.116H29.2c-.032-.344-.088-.56-.168-.648-.072-.088-.196-.076-.372.036a6.522 6.522 0 0 1-.948.552c-.328.152-.752.228-1.272.228-.76 0-1.428-.172-2.004-.516-.568-.344-1.012-.84-1.332-1.488-.312-.648-.468-1.428-.468-2.34 0-.896.164-1.68.492-2.352.328-.672.776-1.196 1.344-1.572.576-.376 1.236-.564 1.98-.564Zm9.942 0c.76 0 1.424.172 1.992.516.576.344 1.02.84 1.332 1.488.32.64.48 1.42.48 2.34 0 .896-.164 1.68-.492 2.352-.32.672-.768 1.196-1.344 1.572-.576.376-1.236.564-1.98.564-.76 0-1.428-.172-2.004-.516-.568-.344-1.012-.84-1.332-1.488-.312-.648-.468-1.428-.468-2.34 0-.896.164-1.68.492-2.352.328-.672.776-1.196 1.344-1.572.576-.376 1.236-.564 1.98-.564Zm-.048.216c-.52 0-.972.18-1.356.54-.384.36-.684.856-.9 1.488-.208.632-.312 1.364-.312 2.196 0 .848.116 1.588.348 2.22.24.624.56 1.108.96 1.452.408.336.856.504 1.344.504.52 0 .972-.18 1.356-.54.384-.36.68-.856.888-1.488.216-.64.324-1.372.324-2.196 0-.856-.12-1.596-.36-2.22-.232-.624-.548-1.104-.948-1.44-.4-.344-.848-.516-1.344-.516Zm14.116-.048v.24c-.272.008-.48.048-.623.12a.555.555 0 0 0-.276.348c-.049.16-.073.388-.073.684v7.164h-.275l-5.04-7.788v6.336c0 .288.024.516.072.684.056.16.16.276.312.348.16.064.396.104.708.12V15a5.316 5.316 0 0 0-.565-.024 15.927 15.927 0 0 0-1.272 0c-.2 0-.367.008-.504.024v-.24c.273-.016.477-.056.612-.12a.547.547 0 0 0 .289-.348c.047-.168.072-.396.072-.684V7.776c0-.296-.025-.512-.072-.648a.433.433 0 0 0-.288-.288c-.136-.056-.34-.088-.613-.096v-.24c.136.008.304.016.505.024.208.008.412.012.611.012.176 0 .344-.004.505-.012l.431-.024 4.236 6.528V7.896c0-.296-.027-.524-.084-.684a.539.539 0 0 0-.312-.348c-.151-.072-.383-.112-.695-.12v-.24a28.006 28.006 0 0 0 1.224.036 21.988 21.988 0 0 0 1.116-.036Zm11.008 8.772.18.072a3.63 3.63 0 0 1-.337.816 2.01 2.01 0 0 1-.42.552c-.152.136-.36.26-.624.372-.256.112-.588.168-.996.168-.424 0-.836-.072-1.236-.216-.392-.136-.8-.304-1.224-.504a12.237 12.237 0 0 0-1.56-.6 1.11 1.11 0 0 0-.132-.036c-.152.056-.316.1-.492.132a2.82 2.82 0 0 1-.504.048c-.16 0-.292-.02-.396-.06-.104-.04-.156-.1-.156-.18 0-.168.216-.252.648-.252.28 0 .58.032.9.096.288-.08.536-.172.744-.276.208-.096.42-.188.636-.276.224-.088.492-.144.804-.168l.012.192c-.24.024-.448.068-.624.132-.176.072-.352.148-.528.228-.176.08-.384.156-.624.228.4.08.836.164 1.308.252.472.088.928.164 1.368.228.44.064.816.096 1.128.096.576 0 1.028-.084 1.356-.252.336-.168.592-.432.768-.792Zm-4.525-8.94c.76 0 1.424.172 1.992.516.576.344 1.02.84 1.332 1.488.32.64.48 1.42.48 2.34 0 .896-.164 1.68-.492 2.352-.32.672-.768 1.196-1.344 1.572-.576.376-1.236.564-1.98.564-.76 0-1.428-.172-2.004-.516-.568-.344-1.012-.84-1.332-1.488-.312-.648-.468-1.428-.468-2.34 0-.896.164-1.68.492-2.352.328-.672.776-1.196 1.344-1.572.576-.376 1.236-.564 1.98-.564Zm-.048.216c-.52 0-.972.18-1.356.54-.384.36-.684.856-.9 1.488-.208.632-.312 1.364-.312 2.196 0 .848.116 1.588.348 2.22.24.624.56 1.108.96 1.452.408.336.856.504 1.344.504.52 0 .972-.18 1.356-.54.384-.36.68-.856.888-1.488.216-.64.324-1.372.324-2.196 0-.856-.12-1.596-.36-2.22-.232-.624-.548-1.104-.948-1.44-.4-.344-.848-.516-1.344-.516Zm13.96-.048v.24c-.272.008-.48.048-.624.12a.555.555 0 0 0-.276.348c-.048.16-.072.388-.072.684v3.612a8.69 8.69 0 0 1-.108 1.464c-.072.416-.2.776-.384 1.08a2.22 2.22 0 0 1-.876.816c-.384.2-.824.3-1.32.3-.384 0-.752-.048-1.104-.144a2.058 2.058 0 0 1-.912-.504 2.983 2.983 0 0 1-.552-.708 2.79 2.79 0 0 1-.264-.912c-.048-.36-.072-.812-.072-1.356V7.776c0-.296-.024-.512-.072-.648a.433.433 0 0 0-.288-.288c-.136-.056-.34-.088-.612-.096v-.24a37.935 37.935 0 0 0 1.536.036c.28 0 .556-.004.828-.012.28-.008.512-.016.696-.024v.24c-.272.008-.48.04-.624.096a.432.432 0 0 0-.276.288c-.048.136-.072.352-.072.648v3.972c0 .408.02.796.06 1.164.04.36.12.68.24.96.128.272.32.488.576.648.256.152.596.228 1.02.228.608 0 1.076-.132 1.404-.396.336-.272.568-.644.696-1.116a5.764 5.764 0 0 0 .204-1.596V7.896c0-.296-.036-.524-.108-.684a.624.624 0 0 0-.336-.348c-.16-.072-.376-.112-.648-.12v-.24a28.006 28.006 0 0 0 1.224.036 21.988 21.988 0 0 0 1.116-.036Zm8.492 0c-.032.28-.056.552-.072.816-.008.264-.012.464-.012.6a7.155 7.155 0 0 0 .036.744h-.276c-.048-.472-.116-.844-.204-1.116-.088-.28-.24-.476-.456-.588-.208-.12-.524-.18-.948-.18h-.996c-.272 0-.48.024-.624.072a.4.4 0 0 0-.276.276c-.048.136-.072.352-.072.648v5.952c0 .288.024.504.072.648.048.144.14.24.276.288.144.04.352.06.624.06h.876c.504 0 .884-.068 1.14-.204a1.16 1.16 0 0 0 .564-.66c.12-.312.208-.732.264-1.26h.276a8.194 8.194 0 0 0-.036.864c0 .152.004.372.012.66.016.28.04.572.072.876a35.552 35.552 0 0 0-1.38-.024 88.569 88.569 0 0 0-1.368-.012h-.684c-.272 0-.568.004-.888.012-.32 0-.644.004-.972.012-.328 0-.64.004-.936.012v-.24c.272-.016.476-.048.612-.096a.433.433 0 0 0 .288-.288c.048-.144.072-.36.072-.648V7.776c0-.296-.024-.512-.072-.648a.433.433 0 0 0-.288-.288c-.136-.056-.34-.088-.612-.096v-.24l.936.024c.328 0 .652.004.972.012h2.82c.472-.008.892-.02 1.26-.036Zm-2.064 4.104v.24h-2.196v-.24h2.196Zm.348-1.584c-.032.456-.048.804-.048 1.044.008.24.012.46.012.66s.004.42.012.66c.008.24.028.588.06 1.044h-.276a10.322 10.322 0 0 0-.12-.744 1.06 1.06 0 0 0-.288-.6c-.144-.16-.392-.24-.744-.24v-.24c.264 0 .464-.052.6-.156a.953.953 0 0 0 .312-.42 2.33 2.33 0 0 0 .132-.516c.024-.184.048-.348.072-.492h.276Zm7.288-2.652c.4 0 .704.048.912.144.209.088.392.188.552.3l.228.132a.514.514 0 0 0 .18.036c.08 0 .136-.044.168-.132.04-.088.073-.22.097-.396h.275c-.007.136-.02.3-.035.492-.008.184-.017.432-.025.744v1.212h-.275a3.467 3.467 0 0 0-.252-1.104 2.104 2.104 0 0 0-.636-.864c-.272-.224-.632-.336-1.08-.336-.424 0-.776.128-1.056.384-.273.256-.409.592-.409 1.008 0 .36.093.664.276.912.184.24.428.46.733.66l1.008.624c.416.256.784.512 1.104.768.327.248.583.524.767.828.192.304.288.672.288 1.104 0 .512-.115.936-.347 1.272-.233.336-.54.588-.925.756a3.14 3.14 0 0 1-1.271.252c-.424 0-.76-.048-1.008-.144a4.332 4.332 0 0 1-.636-.3c-.177-.112-.313-.168-.409-.168-.08 0-.14.044-.18.132-.032.088-.06.22-.084.396h-.275a6.29 6.29 0 0 0 .023-.588c.008-.232.012-.532.012-.9.008-.368.012-.832.012-1.392h.276c.032.48.12.928.264 1.344.153.416.38.752.684 1.008.313.248.725.372 1.237.372.263 0 .511-.052.743-.156.24-.112.436-.284.588-.516.153-.24.229-.548.229-.924a1.5 1.5 0 0 0-.24-.852 2.474 2.474 0 0 0-.648-.684 9.973 9.973 0 0 0-.984-.66 16.143 16.143 0 0 1-1.056-.708 3.101 3.101 0 0 1-.792-.828c-.192-.32-.288-.704-.288-1.152 0-.472.103-.86.312-1.164.216-.312.496-.54.84-.684a2.7 2.7 0 0 1 1.103-.228Zm12.193.132c-.032.304-.056.6-.072.888-.008.28-.012.496-.012.648 0 .192.004.372.012.54.008.168.016.316.024.444h-.276c-.056-.56-.132-1-.228-1.32-.096-.328-.264-.564-.504-.708-.24-.144-.612-.216-1.116-.216h-.648v6.828c0 .32.028.56.084.72.064.16.184.268.36.324.176.056.432.092.768.108V15a10.68 10.68 0 0 0-.792-.024 38.895 38.895 0 0 0-1.992 0 9.5 9.5 0 0 0-.756.024v-.24c.336-.016.592-.052.768-.108a.507.507 0 0 0 .348-.324c.064-.16.096-.4.096-.72V6.78h-.648c-.496 0-.868.072-1.116.216-.24.144-.408.38-.504.708-.096.32-.172.76-.228 1.32h-.276c.016-.128.024-.276.024-.444.008-.168.012-.348.012-.54 0-.152-.008-.368-.024-.648a11.549 11.549 0 0 0-.06-.888l1.092.024c.4.008.8.012 1.2.012h2.172c.4 0 .8-.004 1.2-.012l1.092-.024Z" fill="#555248"/><path fill-rule="evenodd" clip-rule="evenodd" d="M19.186 10.46v.005a9.592 9.592 0 0 1-5.052 7.986l-.015.008a9.552 9.552 0 0 1-6.13.995 9.597 9.597 0 0 1-2.925-17.92A9.585 9.585 0 0 1 8.533.454a9.626 9.626 0 0 1 5.033.801l.015.007a9.555 9.555 0 0 1 4.476 4.197 9.553 9.553 0 0 1 1.129 5.002ZM9.03 1.413a8.632 8.632 0 0 1 4.123.752 8.555 8.555 0 0 1 4.021 3.766 8.592 8.592 0 0 1-3.514 11.64 8.552 8.552 0 0 1-4.67.999l.04-17.157Zm-1 .125-.04 16.9A8.597 8.597 0 0 1 5.537 2.417a8.591 8.591 0 0 1 2.493-.878Z" fill="url(#a)"/><defs><linearGradient id="a" x1=".362" y1="8.723" x2="20.57" y2="9.992" gradientUnits="userSpaceOnUse"><stop offset=".288" stop-color="#555248"/><stop offset=".78" stop-color="#1B1A17" stop-opacity="0"/></linearGradient></defs></svg>