<svg width="20" height="20" viewBox="0 0 20 20" xmlns="http://www.w3.org/2000/svg">
<path d="M18.8961 5.05166C18.7931 4.91219 18.6273 4.82598 18.4472 4.81871L7.28162 4.36415C6.96126 4.35091 6.69355 4.58451 6.67986 4.88567C6.66624 5.18672 6.91317 5.44109 7.232 5.45403L17.6416 5.87785L15.5949 11.9093H6.48658L4.84103 3.44689C4.80486 3.26142 4.67004 3.10669 4.4841 3.03779L1.78897 2.03777C1.49193 1.92794 1.15674 2.06574 1.04009 2.34594C0.923633 2.62629 1.06949 2.94306 1.36637 3.05323L3.76277 3.94238L5.43736 12.5533C5.48784 12.8122 5.72671 13.0002 6.0055 13.0002H6.28328L5.64896 14.6643C5.59587 14.8037 5.61775 14.9585 5.7081 15.0796C5.79833 15.2007 5.94508 15.2728 6.10173 15.2728H6.54664C6.27095 15.5625 6.10173 15.9441 6.10173 16.3637C6.10173 17.266 6.87913 18.0001 7.83433 18.0001C8.78953 18.0001 9.56693 17.266 9.56693 16.3637C9.56693 15.9441 9.39771 15.5625 9.12206 15.2728H12.8996C12.6237 15.5625 12.4546 15.9441 12.4546 16.3637C12.4546 17.266 13.2318 18.0001 14.1872 18.0001C15.1426 18.0001 15.9198 17.266 15.9198 16.3637C15.9198 15.9441 15.7506 15.5625 15.475 15.2728H16.016C16.2819 15.2728 16.4973 15.0693 16.4973 14.8182C16.4973 14.5671 16.2819 14.3637 16.016 14.3637H6.78652L7.30624 13H16.016C16.2672 13 16.4894 12.8468 16.5659 12.6211L18.9723 5.53C19.0275 5.36816 18.9992 5.19121 18.8961 5.05166ZM7.83437 17.0912C7.40968 17.0912 7.0643 16.765 7.0643 16.3639C7.0643 15.9628 7.40968 15.6366 7.83437 15.6366C8.25906 15.6366 8.6044 15.9628 8.6044 16.3639C8.6044 16.765 8.25906 17.0912 7.83437 17.0912ZM14.1872 17.0912C13.7625 17.0912 13.4171 16.765 13.4171 16.3639C13.4171 15.9628 13.7625 15.6366 14.1872 15.6366C14.6119 15.6366 14.9572 15.9628 14.9572 16.3639C14.9572 16.765 14.6119 17.0912 14.1872 17.0912Z"/>
</svg>
