<svg width="20" height="20" viewBox="0 0 20 20"
    xmlns="http://www.w3.org/2000/svg">
    <path fill-rule="evenodd" clip-rule="evenodd" d="M0.0349382 6.71978C0.336006 3.77874 2.6481 1.625 5.54835 1.625C7.25903 1.625 8.81149 2.37511 9.82633 3.64881C10.8597 2.38664 12.469 1.62533 14.2016 1.62533C17.1024 1.62533 19.4141 3.77932 19.7154 6.72053C19.7473 6.91288 19.8252 7.60244 19.5446 8.67825C19.1287 10.2747 18.1707 11.7155 16.7891 12.8497L16.7868 12.8515L9.81611 18.4838L2.96088 12.8494C2.96081 12.8493 2.96095 12.8494 2.96088 12.8494C1.57933 11.7155 0.621196 10.2743 0.20534 8.67834M0.0349382 6.71978C0.00229719 6.91388 -0.0749329 7.60351 0.20534 8.67834ZM9.80467 4.94959C9.81005 4.96085 9.81539 4.97214 9.8207 4.98346C9.82858 4.96663 9.83655 4.94986 9.84463 4.93316L9.81908 4.97191L9.80467 4.94959ZM5.54835 3.03691C3.43463 3.03691 1.72646 4.6342 1.50634 6.87915L1.50515 6.89124L1.4977 6.93666C1.49108 6.98204 1.47737 7.08806 1.48141 7.27521C1.48651 7.51139 1.52076 7.87035 1.64251 8.33716C1.9804 9.63336 2.76523 10.8251 3.92777 11.7791L9.82454 16.6261L15.8244 11.7778C15.8247 11.7775 15.8251 11.7772 15.8254 11.7769C16.9851 10.8251 17.7699 9.63342 18.1074 8.33764C18.2291 7.87083 18.2634 7.51167 18.2685 7.27525C18.2733 7.04701 18.2514 6.93074 18.2505 6.92576L18.2494 6.9184L18.2487 6.91117C18.0238 4.63291 16.3137 3.03724 14.2019 3.03724C12.5849 3.03724 11.1357 3.93759 10.4971 5.30749L9.82069 6.75963L9.1443 5.30756C9.14428 5.30751 9.14433 5.30762 9.1443 5.30756C8.49129 3.90766 7.11735 3.03691 5.54835 3.03691Z"/>
</svg>
