<svg width="21" height="20" viewBox="0 0 21 20" fill="none" xmlns="http://www.w3.org/2000/svg">
<path fill-rule="evenodd" clip-rule="evenodd" d="M0.659938 6.71978C0.961006 3.77874 3.2731 1.625 6.17335 1.625C7.88403 1.625 9.43649 2.37511 10.4513 3.64881C11.4847 2.38664 13.094 1.62533 14.8266 1.62533C17.7274 1.62533 20.0391 3.77932 20.3404 6.72053C20.3723 6.91288 20.4502 7.60244 20.1696 8.67825C19.7537 10.2747 18.7957 11.7155 17.4141 12.8497L17.4118 12.8515L10.4411 18.4838L3.58588 12.8494C3.58581 12.8493 3.58595 12.8494 3.58588 12.8494C2.20433 11.7155 1.2462 10.2743 0.83034 8.67834M0.659938 6.71978C0.627297 6.91388 0.550067 7.60351 0.83034 8.67834ZM10.4297 4.94959C10.4351 4.96085 10.4404 4.97214 10.4457 4.98346C10.4536 4.96663 10.4616 4.94986 10.4696 4.93316L10.4441 4.97191L10.4297 4.94959ZM6.17335 3.03691C4.05963 3.03691 2.35146 4.6342 2.13134 6.87915L2.13015 6.89124L2.1227 6.93666C2.11608 6.98204 2.10237 7.08806 2.10641 7.27521C2.11151 7.51139 2.14576 7.87035 2.26751 8.33716C2.6054 9.63336 3.39023 10.8251 4.55277 11.7791L10.4495 16.6261L16.4494 11.7778C16.4497 11.7775 16.4501 11.7772 16.4504 11.7769C17.6101 10.8251 18.3949 9.63342 18.7324 8.33764C18.8541 7.87083 18.8884 7.51167 18.8935 7.27525C18.8983 7.04701 18.8764 6.93074 18.8755 6.92576L18.8744 6.9184L18.8737 6.91117C18.6488 4.63291 16.9387 3.03724 14.8269 3.03724C13.2099 3.03724 11.7607 3.93759 11.1221 5.30749L10.4457 6.75963L9.7693 5.30756C9.76928 5.30751 9.76933 5.30762 9.7693 5.30756C9.11629 3.90766 7.74235 3.03691 6.17335 3.03691Z" fill="#1B1A17"/>
</svg>
