<svg width="24" height="24" viewBox="0 0 24 24" fill="none" xmlns="http://www.w3.org/2000/svg">
<path d="M6.94654 0C3.11546 0 0 3.12481 0 6.96524V17.0365C0 20.8769 3.11546 24 6.94654 24H17.0534C20.8845 24 24 20.8769 24 17.0365V6.96524C24 3.12481 20.8845 0 17.0534 0H6.94654V0ZM6.94654 2.06322H17.0534C19.7801 2.06322 21.9435 4.23197 21.9435 6.96524V17.0365C21.9435 19.7698 19.7801 21.9368 17.0534 21.9368H6.94654C4.21991 21.9368 2.05816 19.7698 2.05816 17.0365V6.96524C2.05816 4.23197 4.21991 2.06322 6.94654 2.06322ZM18.441 4.12641C17.646 4.12641 17.0019 4.77212 17.0019 5.56909C17.0019 6.36609 17.646 7.01178 18.441 7.01178C19.2361 7.01178 19.8802 6.36609 19.8802 5.56909C19.8802 4.77212 19.2361 4.12641 18.441 4.12641ZM12 5.82073C8.60758 5.82073 5.8358 8.5993 5.8358 12C5.8358 15.4007 8.60758 18.1793 12 18.1793C15.3924 18.1793 18.1659 15.4007 18.1659 12C18.1659 8.5993 15.3924 5.82073 12 5.82073ZM12 7.88395C14.2803 7.88395 16.1077 9.71415 16.1077 12C16.1077 14.2859 14.2803 16.1161 12 16.1161C9.71971 16.1161 7.89396 14.2859 7.89396 12C7.89396 9.71415 9.71971 7.88395 12 7.88395Z" fill="#5C5C50"/>
</svg>
