<svg width="20" height="20" viewBox="0 0 20 20" fill="none" xmlns="http://www.w3.org/2000/svg">
<path d="M17.8041 16.8638L13.9576 13.0172C14.911 11.8547 15.4857 10.3658 15.4857 8.74289C15.4857 5.02042 12.4653 2 8.74286 2C5.01714 2 2 5.02042 2 8.74289C2 12.4654 5.01714 15.4858 8.74286 15.4858C10.3657 15.4858 11.8514 14.9144 13.0139 13.9609L16.8604 17.8042C17.1216 18.0654 17.5429 18.0654 17.8041 17.8042C18.0653 17.5462 18.0653 17.1217 17.8041 16.8638ZM8.74286 14.1437C5.76163 14.1437 3.33878 11.7209 3.33878 8.74289C3.33878 5.76492 5.76163 3.33878 8.74286 3.33878C11.7208 3.33878 14.1469 5.76492 14.1469 8.74289C14.1469 11.7209 11.7208 14.1437 8.74286 14.1437Z" fill="#1B1A17"/>
</svg>
