<svg width="24" height="24" viewBox="0 0 24 24"
    xmlns="http://www.w3.org/2000/svg">
    <path d="M23 5.38918C22.191 5.73222 21.321 5.96407 20.4081 6.06852C21.3398 5.5346 22.0552 4.68955 22.3922 3.68282C21.5202 4.17718 20.5546 4.53577 19.526 4.72905C18.7032 3.89117 17.5301 3.36743 16.232 3.36743C13.7393 3.36743 11.7189 5.298 11.7189 7.67956C11.7189 8.01766 11.7584 8.34689 11.8357 8.6623C8.0846 8.4827 4.75901 6.76541 2.53295 4.15673C2.14443 4.79333 1.92189 5.53398 1.92189 6.3244C1.92189 7.82069 2.71835 9.14036 3.92973 9.91397C3.18992 9.89187 2.49391 9.6978 1.88538 9.37458C1.88451 9.39275 1.8845 9.41067 1.8845 9.4287C1.8845 11.5184 3.44044 13.2609 5.50492 13.6573C5.12653 13.7559 4.7279 13.808 4.31624 13.808C4.02512 13.808 3.74286 13.7817 3.46681 13.7311C4.04153 15.4443 5.70801 16.6912 7.68334 16.7261C6.13742 17.8829 4.19166 18.5719 2.07697 18.5719C1.71292 18.5719 1.35337 18.5514 1 18.5118C2.99818 19.7353 5.37022 20.449 7.91929 20.449C16.2207 20.449 20.7597 13.8783 20.7597 8.17934C20.7597 7.99246 20.7552 7.80686 20.747 7.62193C21.6285 7.01345 22.3936 6.25416 22.999 5.38921"/>
</svg>
